<?xml version="1.0" encoding="UTF-8" standalone="no"?>
<!DOCTYPE svg PUBLIC "-//W3C//DTD SVG 1.1//EN"
 "http://www.w3.org/Graphics/SVG/1.1/DTD/svg11.dtd">
<!-- Generated by graphviz version 2.40.1 (20161225.0304)
 -->
<!-- Title: G Pages: 1 -->
<svg width="521pt" height="1069pt"
 viewBox="0.00 0.00 391.00 802.00" xmlns="http://www.w3.org/2000/svg" xmlns:xlink="http://www.w3.org/1999/xlink">
<g id="graph0" class="graph" transform="scale(1.3333 1.3333) rotate(0) translate(4 798)">
<title>G</title>
<polygon fill="#ffffff" stroke="transparent" points="-4,4 -4,-798 387,-798 387,4 -4,4"/>
<!-- 140582017756560 -->
<g id="node1" class="node">
<title>140582017756560</title>
<polygon fill="none" stroke="#000000" points="72.5,-747.5 72.5,-793.5 310.5,-793.5 310.5,-747.5 72.5,-747.5"/>
<text text-anchor="middle" x="136" y="-766.8" font-family="Times,serif" font-size="14.00" fill="#000000">input_1: InputLayer</text>
<polyline fill="none" stroke="#000000" points="199.5,-747.5 199.5,-793.5 "/>
<text text-anchor="middle" x="227.5" y="-778.3" font-family="Times,serif" font-size="14.00" fill="#000000">input:</text>
<polyline fill="none" stroke="#000000" points="199.5,-770.5 255.5,-770.5 "/>
<text text-anchor="middle" x="227.5" y="-755.3" font-family="Times,serif" font-size="14.00" fill="#000000">output:</text>
<polyline fill="none" stroke="#000000" points="255.5,-747.5 255.5,-793.5 "/>
<text text-anchor="middle" x="283" y="-778.3" font-family="Times,serif" font-size="14.00" fill="#000000">[(?, 1)]</text>
<polyline fill="none" stroke="#000000" points="255.5,-770.5 310.5,-770.5 "/>
<text text-anchor="middle" x="283" y="-755.3" font-family="Times,serif" font-size="14.00" fill="#000000">[(?, 1)]</text>
</g>
<!-- 140584496990960 -->
<g id="node2" class="node">
<title>140584496990960</title>
<polygon fill="none" stroke="#000000" points="20.5,-664.5 20.5,-710.5 362.5,-710.5 362.5,-664.5 20.5,-664.5"/>
<text text-anchor="middle" x="134" y="-683.8" font-family="Times,serif" font-size="14.00" fill="#000000">text_vectorization: TextVectorization</text>
<polyline fill="none" stroke="#000000" points="247.5,-664.5 247.5,-710.5 "/>
<text text-anchor="middle" x="275.5" y="-695.3" font-family="Times,serif" font-size="14.00" fill="#000000">input:</text>
<polyline fill="none" stroke="#000000" points="247.5,-687.5 303.5,-687.5 "/>
<text text-anchor="middle" x="275.5" y="-672.3" font-family="Times,serif" font-size="14.00" fill="#000000">output:</text>
<polyline fill="none" stroke="#000000" points="303.5,-664.5 303.5,-710.5 "/>
<text text-anchor="middle" x="333" y="-695.3" font-family="Times,serif" font-size="14.00" fill="#000000">(?, 1)</text>
<polyline fill="none" stroke="#000000" points="303.5,-687.5 362.5,-687.5 "/>
<text text-anchor="middle" x="333" y="-672.3" font-family="Times,serif" font-size="14.00" fill="#000000">(?, 300)</text>
</g>
<!-- 140582017756560&#45;&gt;140584496990960 -->
<g id="edge1" class="edge">
<title>140582017756560&#45;&gt;140584496990960</title>
<path fill="none" stroke="#000000" d="M191.5,-747.3799C191.5,-739.1745 191.5,-729.7679 191.5,-720.8786"/>
<polygon fill="#000000" stroke="#000000" points="195.0001,-720.784 191.5,-710.784 188.0001,-720.784 195.0001,-720.784"/>
</g>
<!-- 140582017756416 -->
<g id="node3" class="node">
<title>140582017756416</title>
<polygon fill="none" stroke="#000000" points="47.5,-581.5 47.5,-627.5 335.5,-627.5 335.5,-581.5 47.5,-581.5"/>
<text text-anchor="middle" x="120.5" y="-600.8" font-family="Times,serif" font-size="14.00" fill="#000000">embedding: Embedding</text>
<polyline fill="none" stroke="#000000" points="193.5,-581.5 193.5,-627.5 "/>
<text text-anchor="middle" x="221.5" y="-612.3" font-family="Times,serif" font-size="14.00" fill="#000000">input:</text>
<polyline fill="none" stroke="#000000" points="193.5,-604.5 249.5,-604.5 "/>
<text text-anchor="middle" x="221.5" y="-589.3" font-family="Times,serif" font-size="14.00" fill="#000000">output:</text>
<polyline fill="none" stroke="#000000" points="249.5,-581.5 249.5,-627.5 "/>
<text text-anchor="middle" x="292.5" y="-612.3" font-family="Times,serif" font-size="14.00" fill="#000000">(?, 300)</text>
<polyline fill="none" stroke="#000000" points="249.5,-604.5 335.5,-604.5 "/>
<text text-anchor="middle" x="292.5" y="-589.3" font-family="Times,serif" font-size="14.00" fill="#000000">(?, 300, 300)</text>
</g>
<!-- 140584496990960&#45;&gt;140582017756416 -->
<g id="edge2" class="edge">
<title>140584496990960&#45;&gt;140582017756416</title>
<path fill="none" stroke="#000000" d="M191.5,-664.3799C191.5,-656.1745 191.5,-646.7679 191.5,-637.8786"/>
<polygon fill="#000000" stroke="#000000" points="195.0001,-637.784 191.5,-627.784 188.0001,-637.784 195.0001,-637.784"/>
</g>
<!-- 140581999221920 -->
<g id="node4" class="node">
<title>140581999221920</title>
<polygon fill="none" stroke="#000000" points="8.5,-498.5 8.5,-544.5 374.5,-544.5 374.5,-498.5 8.5,-498.5"/>
<text text-anchor="middle" x="120.5" y="-517.8" font-family="Times,serif" font-size="14.00" fill="#000000">spatial_dropout1d: SpatialDropout1D</text>
<polyline fill="none" stroke="#000000" points="232.5,-498.5 232.5,-544.5 "/>
<text text-anchor="middle" x="260.5" y="-529.3" font-family="Times,serif" font-size="14.00" fill="#000000">input:</text>
<polyline fill="none" stroke="#000000" points="232.5,-521.5 288.5,-521.5 "/>
<text text-anchor="middle" x="260.5" y="-506.3" font-family="Times,serif" font-size="14.00" fill="#000000">output:</text>
<polyline fill="none" stroke="#000000" points="288.5,-498.5 288.5,-544.5 "/>
<text text-anchor="middle" x="331.5" y="-529.3" font-family="Times,serif" font-size="14.00" fill="#000000">(?, 300, 300)</text>
<polyline fill="none" stroke="#000000" points="288.5,-521.5 374.5,-521.5 "/>
<text text-anchor="middle" x="331.5" y="-506.3" font-family="Times,serif" font-size="14.00" fill="#000000">(?, 300, 300)</text>
</g>
<!-- 140582017756416&#45;&gt;140581999221920 -->
<g id="edge3" class="edge">
<title>140582017756416&#45;&gt;140581999221920</title>
<path fill="none" stroke="#000000" d="M191.5,-581.3799C191.5,-573.1745 191.5,-563.7679 191.5,-554.8786"/>
<polygon fill="#000000" stroke="#000000" points="195.0001,-554.784 191.5,-544.784 188.0001,-554.784 195.0001,-554.784"/>
</g>
<!-- 140581999680672 -->
<g id="node5" class="node">
<title>140581999680672</title>
<polygon fill="none" stroke="#000000" points="65.5,-415.5 65.5,-461.5 317.5,-461.5 317.5,-415.5 65.5,-415.5"/>
<text text-anchor="middle" x="120.5" y="-434.8" font-family="Times,serif" font-size="14.00" fill="#000000">conv1d: Conv1D</text>
<polyline fill="none" stroke="#000000" points="175.5,-415.5 175.5,-461.5 "/>
<text text-anchor="middle" x="203.5" y="-446.3" font-family="Times,serif" font-size="14.00" fill="#000000">input:</text>
<polyline fill="none" stroke="#000000" points="175.5,-438.5 231.5,-438.5 "/>
<text text-anchor="middle" x="203.5" y="-423.3" font-family="Times,serif" font-size="14.00" fill="#000000">output:</text>
<polyline fill="none" stroke="#000000" points="231.5,-415.5 231.5,-461.5 "/>
<text text-anchor="middle" x="274.5" y="-446.3" font-family="Times,serif" font-size="14.00" fill="#000000">(?, 300, 300)</text>
<polyline fill="none" stroke="#000000" points="231.5,-438.5 317.5,-438.5 "/>
<text text-anchor="middle" x="274.5" y="-423.3" font-family="Times,serif" font-size="14.00" fill="#000000">(?, 296, 64)</text>
</g>
<!-- 140581999221920&#45;&gt;140581999680672 -->
<g id="edge4" class="edge">
<title>140581999221920&#45;&gt;140581999680672</title>
<path fill="none" stroke="#000000" d="M191.5,-498.3799C191.5,-490.1745 191.5,-480.7679 191.5,-471.8786"/>
<polygon fill="#000000" stroke="#000000" points="195.0001,-471.784 191.5,-461.784 188.0001,-471.784 195.0001,-471.784"/>
</g>
<!-- 140582017666928 -->
<g id="node6" class="node">
<title>140582017666928</title>
<polygon fill="none" stroke="#000000" points="0,-332.5 0,-378.5 383,-378.5 383,-332.5 0,-332.5"/>
<text text-anchor="middle" x="124" y="-351.8" font-family="Times,serif" font-size="14.00" fill="#000000">bidirectional(lstm): Bidirectional(LSTM)</text>
<polyline fill="none" stroke="#000000" points="248,-332.5 248,-378.5 "/>
<text text-anchor="middle" x="276" y="-363.3" font-family="Times,serif" font-size="14.00" fill="#000000">input:</text>
<polyline fill="none" stroke="#000000" points="248,-355.5 304,-355.5 "/>
<text text-anchor="middle" x="276" y="-340.3" font-family="Times,serif" font-size="14.00" fill="#000000">output:</text>
<polyline fill="none" stroke="#000000" points="304,-332.5 304,-378.5 "/>
<text text-anchor="middle" x="343.5" y="-363.3" font-family="Times,serif" font-size="14.00" fill="#000000">(?, 296, 64)</text>
<polyline fill="none" stroke="#000000" points="304,-355.5 383,-355.5 "/>
<text text-anchor="middle" x="343.5" y="-340.3" font-family="Times,serif" font-size="14.00" fill="#000000">(?, 256)</text>
</g>
<!-- 140581999680672&#45;&gt;140582017666928 -->
<g id="edge5" class="edge">
<title>140581999680672&#45;&gt;140582017666928</title>
<path fill="none" stroke="#000000" d="M191.5,-415.3799C191.5,-407.1745 191.5,-397.7679 191.5,-388.8786"/>
<polygon fill="#000000" stroke="#000000" points="195.0001,-388.784 191.5,-378.784 188.0001,-388.784 195.0001,-388.784"/>
</g>
<!-- 140582017739216 -->
<g id="node7" class="node">
<title>140582017739216</title>
<polygon fill="none" stroke="#000000" points="89.5,-249.5 89.5,-295.5 293.5,-295.5 293.5,-249.5 89.5,-249.5"/>
<text text-anchor="middle" x="134" y="-268.8" font-family="Times,serif" font-size="14.00" fill="#000000">dense: Dense</text>
<polyline fill="none" stroke="#000000" points="178.5,-249.5 178.5,-295.5 "/>
<text text-anchor="middle" x="206.5" y="-280.3" font-family="Times,serif" font-size="14.00" fill="#000000">input:</text>
<polyline fill="none" stroke="#000000" points="178.5,-272.5 234.5,-272.5 "/>
<text text-anchor="middle" x="206.5" y="-257.3" font-family="Times,serif" font-size="14.00" fill="#000000">output:</text>
<polyline fill="none" stroke="#000000" points="234.5,-249.5 234.5,-295.5 "/>
<text text-anchor="middle" x="264" y="-280.3" font-family="Times,serif" font-size="14.00" fill="#000000">(?, 256)</text>
<polyline fill="none" stroke="#000000" points="234.5,-272.5 293.5,-272.5 "/>
<text text-anchor="middle" x="264" y="-257.3" font-family="Times,serif" font-size="14.00" fill="#000000">(?, 512)</text>
</g>
<!-- 140582017666928&#45;&gt;140582017739216 -->
<g id="edge6" class="edge">
<title>140582017666928&#45;&gt;140582017739216</title>
<path fill="none" stroke="#000000" d="M191.5,-332.3799C191.5,-324.1745 191.5,-314.7679 191.5,-305.8786"/>
<polygon fill="#000000" stroke="#000000" points="195.0001,-305.784 191.5,-295.784 188.0001,-305.784 195.0001,-305.784"/>
</g>
<!-- 140581997536016 -->
<g id="node8" class="node">
<title>140581997536016</title>
<polygon fill="none" stroke="#000000" points="77.5,-166.5 77.5,-212.5 305.5,-212.5 305.5,-166.5 77.5,-166.5"/>
<text text-anchor="middle" x="134" y="-185.8" font-family="Times,serif" font-size="14.00" fill="#000000">dropout: Dropout</text>
<polyline fill="none" stroke="#000000" points="190.5,-166.5 190.5,-212.5 "/>
<text text-anchor="middle" x="218.5" y="-197.3" font-family="Times,serif" font-size="14.00" fill="#000000">input:</text>
<polyline fill="none" stroke="#000000" points="190.5,-189.5 246.5,-189.5 "/>
<text text-anchor="middle" x="218.5" y="-174.3" font-family="Times,serif" font-size="14.00" fill="#000000">output:</text>
<polyline fill="none" stroke="#000000" points="246.5,-166.5 246.5,-212.5 "/>
<text text-anchor="middle" x="276" y="-197.3" font-family="Times,serif" font-size="14.00" fill="#000000">(?, 512)</text>
<polyline fill="none" stroke="#000000" points="246.5,-189.5 305.5,-189.5 "/>
<text text-anchor="middle" x="276" y="-174.3" font-family="Times,serif" font-size="14.00" fill="#000000">(?, 512)</text>
</g>
<!-- 140582017739216&#45;&gt;140581997536016 -->
<g id="edge7" class="edge">
<title>140582017739216&#45;&gt;140581997536016</title>
<path fill="none" stroke="#000000" d="M191.5,-249.3799C191.5,-241.1745 191.5,-231.7679 191.5,-222.8786"/>
<polygon fill="#000000" stroke="#000000" points="195.0001,-222.784 191.5,-212.784 188.0001,-222.784 195.0001,-222.784"/>
</g>
<!-- 140581801517264 -->
<g id="node9" class="node">
<title>140581801517264</title>
<polygon fill="none" stroke="#000000" points="83,-83.5 83,-129.5 300,-129.5 300,-83.5 83,-83.5"/>
<text text-anchor="middle" x="134" y="-102.8" font-family="Times,serif" font-size="14.00" fill="#000000">dense_1: Dense</text>
<polyline fill="none" stroke="#000000" points="185,-83.5 185,-129.5 "/>
<text text-anchor="middle" x="213" y="-114.3" font-family="Times,serif" font-size="14.00" fill="#000000">input:</text>
<polyline fill="none" stroke="#000000" points="185,-106.5 241,-106.5 "/>
<text text-anchor="middle" x="213" y="-91.3" font-family="Times,serif" font-size="14.00" fill="#000000">output:</text>
<polyline fill="none" stroke="#000000" points="241,-83.5 241,-129.5 "/>
<text text-anchor="middle" x="270.5" y="-114.3" font-family="Times,serif" font-size="14.00" fill="#000000">(?, 512)</text>
<polyline fill="none" stroke="#000000" points="241,-106.5 300,-106.5 "/>
<text text-anchor="middle" x="270.5" y="-91.3" font-family="Times,serif" font-size="14.00" fill="#000000">(?, 512)</text>
</g>
<!-- 140581997536016&#45;&gt;140581801517264 -->
<g id="edge8" class="edge">
<title>140581997536016&#45;&gt;140581801517264</title>
<path fill="none" stroke="#000000" d="M191.5,-166.3799C191.5,-158.1745 191.5,-148.7679 191.5,-139.8786"/>
<polygon fill="#000000" stroke="#000000" points="195.0001,-139.784 191.5,-129.784 188.0001,-139.784 195.0001,-139.784"/>
</g>
<!-- 140581801329808 -->
<g id="node10" class="node">
<title>140581801329808</title>
<polygon fill="none" stroke="#000000" points="83,-.5 83,-46.5 300,-46.5 300,-.5 83,-.5"/>
<text text-anchor="middle" x="134" y="-19.8" font-family="Times,serif" font-size="14.00" fill="#000000">dense_2: Dense</text>
<polyline fill="none" stroke="#000000" points="185,-.5 185,-46.5 "/>
<text text-anchor="middle" x="213" y="-31.3" font-family="Times,serif" font-size="14.00" fill="#000000">input:</text>
<polyline fill="none" stroke="#000000" points="185,-23.5 241,-23.5 "/>
<text text-anchor="middle" x="213" y="-8.3" font-family="Times,serif" font-size="14.00" fill="#000000">output:</text>
<polyline fill="none" stroke="#000000" points="241,-.5 241,-46.5 "/>
<text text-anchor="middle" x="270.5" y="-31.3" font-family="Times,serif" font-size="14.00" fill="#000000">(?, 512)</text>
<polyline fill="none" stroke="#000000" points="241,-23.5 300,-23.5 "/>
<text text-anchor="middle" x="270.5" y="-8.3" font-family="Times,serif" font-size="14.00" fill="#000000">(?, 1)</text>
</g>
<!-- 140581801517264&#45;&gt;140581801329808 -->
<g id="edge9" class="edge">
<title>140581801517264&#45;&gt;140581801329808</title>
<path fill="none" stroke="#000000" d="M191.5,-83.3799C191.5,-75.1745 191.5,-65.7679 191.5,-56.8786"/>
<polygon fill="#000000" stroke="#000000" points="195.0001,-56.784 191.5,-46.784 188.0001,-56.784 195.0001,-56.784"/>
</g>
</g>
</svg>
